# xmcd CD database file
#
# Track frame offsets:
#	150
#	19735
#	35532
#	50088
#	65679
#	83853
#	104533
#	131140
#	149437
#	169857
#	189060
#	203151
#	220353
#
# Disc length: 3242 seconds
#
# Revision: 1
# Processed by: cddbd v1.4PL0 Copyright (c) Steve Scherf et al.
# Submitted via: CDex 1.40Release
#
DISCID=c40ca80d
DTITLE=Jeff Lang - Native Dog Creek
DYEAR=1996
DGENRE=Blues
TTITLE0=Native Dog Creek
TTITLE1=Wind Changing
TTITLE2=In A Town Like This
TTITLE3=Never Loved The Man
TTITLE4=Killer
TTITLE5=I Still See You
TTITLE6=Nothing To Be Ashamed Of
TTITLE7=Freddy
TTITLE8=Burn That Bridge
TTITLE9=Heaven In A Cup
TTITLE10=No Trouble No More
TTITLE11=Fathers Swan Song
TTITLE12=Let Me Down
EXTD=YEAR: 1996 ID3G: 0
EXTT0=
EXTT1=
EXTT2=
EXTT3=
EXTT4=
EXTT5=
EXTT6=
EXTT7=
EXTT8=
EXTT9=
EXTT10=
EXTT11=
EXTT12=
PLAYORDER=
